<svg width="20" height="20" viewBox="0 0 20 20" fill="none" xmlns="http://www.w3.org/2000/svg">
<path d="M7.20817 9.79097H12.7915V8.70768H7.20817V9.79097ZM7.20817 6.79098H12.7915V5.70768H7.20817V6.79098ZM15.5463 16.525L12.8694 13.0077C12.6796 12.7532 12.4447 12.5562 12.1647 12.4168C11.8847 12.2774 11.5797 12.2077 11.2498 12.2077H4.4165V3.75577C4.4165 3.38066 4.5461 3.06359 4.8053 2.80456C5.06449 2.54553 5.38175 2.41602 5.75709 2.41602H14.2493C14.6246 2.41602 14.9408 2.54553 15.1977 2.80456C15.4547 3.06359 15.5831 3.38066 15.5831 3.75577V16.2429C15.5831 16.2929 15.5818 16.342 15.5791 16.3902C15.5764 16.4384 15.5655 16.4833 15.5463 16.525ZM5.75625 17.5826C5.38114 17.5826 5.06407 17.4531 4.80505 17.1941C4.54602 16.9351 4.4165 16.618 4.4165 16.2429V13.291H11.2498C11.393 13.291 11.5335 13.322 11.6713 13.3839C11.8091 13.4459 11.9259 13.5402 12.0218 13.667L14.8796 17.4233C14.7941 17.4697 14.6954 17.5078 14.5833 17.5378C14.4712 17.5677 14.3579 17.5826 14.2434 17.5826H5.75625Z" fill="white"/>
</svg>
