<svg width="48" height="48" viewBox="0 0 48 48" fill="none" xmlns="http://www.w3.org/2000/svg">
<path d="M0 24C0 10.7452 10.7452 0 24 0C37.2548 0 48 10.7452 48 24C48 37.2548 37.2548 48 24 48C10.7452 48 0 37.2548 0 24Z" fill="white" fill-opacity="0.2"/>
<path d="M21.2082 23.791H26.7915V22.7077H21.2082V23.791ZM21.2082 20.791H26.7915V19.7077H21.2082V20.791ZM29.5463 30.525L26.8694 27.0077C26.6796 26.7532 26.4447 26.5562 26.1647 26.4168C25.8847 26.2774 25.5797 26.2077 25.2498 26.2077H18.4165V17.7558C18.4165 17.3807 18.5461 17.0636 18.8053 16.8046C19.0645 16.5455 19.3818 16.416 19.7571 16.416H28.2493C28.6246 16.416 28.9408 16.5455 29.1977 16.8046C29.4547 17.0636 29.5831 17.3807 29.5831 17.7558V30.2429C29.5831 30.2929 29.5818 30.342 29.5791 30.3902C29.5764 30.4384 29.5655 30.4833 29.5463 30.525ZM19.7563 31.5826C19.3811 31.5826 19.0641 31.4531 18.805 31.1941C18.546 30.9351 18.4165 30.618 18.4165 30.2429V27.291H25.2498C25.393 27.291 25.5335 27.322 25.6713 27.3839C25.8091 27.4459 25.9259 27.5402 26.0218 27.667L28.8796 31.4233C28.7941 31.4697 28.6954 31.5078 28.5833 31.5378C28.4712 31.5677 28.3579 31.5826 28.2434 31.5826H19.7563Z" fill="white"/>
</svg>
