<svg width="48" height="48" viewBox="0 0 48 48" fill="none" xmlns="http://www.w3.org/2000/svg">
<path d="M0 24C0 10.7452 10.7452 0 24 0C37.2548 0 48 10.7452 48 24C48 37.2548 37.2548 48 24 48C10.7452 48 0 37.2548 0 24Z" fill="white" fill-opacity="0.2"/>
<path d="M19.7456 25C19.9569 25 20.1354 24.9285 20.2812 24.7856C20.4271 24.6427 20.5 24.4656 20.5 24.2544C20.5 24.0431 20.4285 23.8646 20.2856 23.7188C20.1427 23.5729 19.9656 23.5 19.7544 23.5C19.5431 23.5 19.3646 23.5715 19.2188 23.7144C19.0729 23.8573 19 24.0344 19 24.2456C19 24.4569 19.0715 24.6354 19.2144 24.7812C19.3573 24.9271 19.5344 25 19.7456 25ZM19.7456 22.5C19.9569 22.5 20.1354 22.4285 20.2812 22.2856C20.4271 22.1427 20.5 21.9656 20.5 21.7544C20.5 21.5431 20.4285 21.3646 20.2856 21.2188C20.1427 21.0729 19.9656 21 19.7544 21C19.5431 21 19.3646 21.0715 19.2188 21.2144C19.0729 21.3573 19 21.5344 19 21.7456C19 21.9569 19.0715 22.1354 19.2144 22.2812C19.3573 22.4271 19.5344 22.5 19.7456 22.5ZM22 25H29V23.5H22V25ZM22 22.5H29V21H22V22.5ZM21 31V29H17.5C17.0875 29 16.7344 28.8531 16.4406 28.5592C16.1469 28.2653 16 27.9119 16 27.4992V18.4942C16 18.0814 16.1469 17.7292 16.4406 17.4375C16.7344 17.1458 17.0875 17 17.5 17H30.5C30.9125 17 31.2656 17.1469 31.5594 17.4408C31.8531 17.7347 32 18.0881 32 18.5008V27.5058C32 27.9186 31.8531 28.2708 31.5594 28.5625C31.2656 28.8542 30.9125 29 30.5 29H27V31H21Z" fill="white"/>
</svg>
