<svg width="48" height="48" viewBox="0 0 48 48" fill="none" xmlns="http://www.w3.org/2000/svg">
<path d="M0 24C0 10.7452 10.7452 0 24 0C37.2548 0 48 10.7452 48 24C48 37.2548 37.2548 48 24 48C10.7452 48 0 37.2548 0 24Z" fill="white" fill-opacity="0.2"/>
<path d="M19.3046 29.5909L20.4905 27.1134C20.5749 26.9157 20.7087 26.7653 20.8919 26.6622C21.0751 26.5591 21.2698 26.5076 21.476 26.5076H23.4584V22.679C21.5151 22.6256 19.8863 22.3957 18.5722 21.9891C17.2581 21.5826 16.6011 21.0861 16.6011 20.4996C16.6011 19.8489 17.3174 19.3244 18.7501 18.9259C20.1828 18.5274 21.9328 18.3281 24.0001 18.3281C26.062 18.3281 27.8107 18.5274 29.246 18.9259C30.6814 19.3244 31.3991 19.8489 31.3991 20.4996C31.3991 21.0915 30.7372 21.5893 29.4135 21.9932C28.0898 22.397 26.4659 22.6256 24.5417 22.679V26.5076H26.5241C26.7357 26.5076 26.9317 26.5591 27.1122 26.6622C27.2928 26.7653 27.4253 26.9157 27.5097 27.1134L28.6956 29.5909H27.5962L26.5962 27.5909H21.4039L20.4039 29.5909H19.3046Z" fill="white"/>
</svg>
