<svg width="48" height="48" viewBox="0 0 48 48" fill="none" xmlns="http://www.w3.org/2000/svg">
<path d="M0 24C0 10.7452 10.7452 0 24 0C37.2548 0 48 10.7452 48 24C48 37.2548 37.2548 48 24 48C10.7452 48 0 37.2548 0 24Z" fill="white" fill-opacity="0.2"/>
<path d="M25.75 21.9583V20.375C26.1806 20.2361 26.625 20.1354 27.0833 20.0729C27.5417 20.0104 28.0139 19.9792 28.5 19.9792C28.8194 19.9792 29.1424 19.9965 29.4688 20.0312C29.7951 20.066 30.1389 20.1181 30.5 20.1875V21.7292C30.0833 21.6319 29.7153 21.5625 29.3958 21.5208C29.0764 21.4792 28.7778 21.4583 28.5 21.4583C28.0278 21.4583 27.5625 21.5 27.1042 21.5833C26.6458 21.6667 26.1944 21.7917 25.75 21.9583ZM25.75 26.875V25.2917C26.1389 25.1667 26.5556 25.066 27 24.9896C27.4444 24.9132 27.9444 24.875 28.5 24.875C28.875 24.875 29.2257 24.8958 29.5521 24.9375C29.8785 24.9792 30.1944 25.0347 30.5 25.1042V26.6458C30.0833 26.5486 29.7153 26.4792 29.3958 26.4375C29.0764 26.3958 28.7778 26.375 28.5 26.375C28.0278 26.375 27.5625 26.4167 27.1042 26.5C26.6458 26.5833 26.1944 26.7083 25.75 26.875ZM25.75 24.4167V22.8333C26.1944 22.6944 26.6493 22.5903 27.1146 22.5208C27.5799 22.4514 28.0417 22.4167 28.5 22.4167C28.875 22.4167 29.2257 22.4375 29.5521 22.4792C29.8785 22.5208 30.1944 22.5764 30.5 22.6458V24.1875C30.1389 24.0903 29.7951 24.0208 29.4688 23.9792C29.1424 23.9375 28.8194 23.9167 28.5 23.9167C28.0556 23.9167 27.6076 23.9583 27.1562 24.0417C26.7049 24.125 26.2361 24.25 25.75 24.4167ZM24.75 28.875C25.3472 28.5972 25.9583 28.3819 26.5833 28.2292C27.2083 28.0764 27.8472 28 28.5 28C29.0139 28 29.5243 28.0312 30.0312 28.0938C30.5382 28.1562 31.0278 28.2917 31.5 28.5V19.0833C31.0139 18.9028 30.5208 18.7604 30.0208 18.6562C29.5208 18.5521 29.0139 18.5 28.5 18.5C27.8333 18.5 27.1875 18.5764 26.5625 18.7292C25.9375 18.8819 25.3333 19.1111 24.75 19.4167V28.875ZM24 31C23.3194 30.5556 22.6042 30.1944 21.8542 29.9167C21.1042 29.6389 20.3194 29.5 19.5 29.5C18.9722 29.5 18.4444 29.5521 17.9167 29.6562C17.3889 29.7604 16.8819 29.9167 16.3958 30.125C16.0625 30.2639 15.7465 30.2396 15.4479 30.0521C15.1493 29.8646 15 29.5903 15 29.2292V18.75C15 18.5556 15.0521 18.375 15.1562 18.2083C15.2604 18.0417 15.4028 17.9167 15.5833 17.8333C16.2083 17.5556 16.8472 17.3472 17.5 17.2083C18.1528 17.0694 18.8194 17 19.5 17C20.2917 17 21.066 17.0938 21.8229 17.2812C22.5799 17.4688 23.3056 17.75 24 18.125C24.7083 17.7639 25.4375 17.4861 26.1875 17.2917C26.9375 17.0972 27.7083 17 28.5 17C29.1806 17 29.8472 17.0694 30.5 17.2083C31.1528 17.3472 31.7917 17.5556 32.4167 17.8333C32.5972 17.9167 32.7431 18.0417 32.8542 18.2083C32.9653 18.375 33.0208 18.5556 33.0208 18.75V29.2292C33.0208 29.5764 32.9132 29.8542 32.6979 30.0625C32.4826 30.2708 32.2569 30.3194 32.0208 30.2083C31.4653 29.9583 30.8924 29.7778 30.3021 29.6667C29.7118 29.5556 29.1111 29.5 28.5 29.5C27.6806 29.5 26.8958 29.6389 26.1458 29.9167C25.3958 30.1944 24.6806 30.5556 24 31Z" fill="white"/>
</svg>
