<svg width="16" height="12" viewBox="0 0 16 12" fill="none" xmlns="http://www.w3.org/2000/svg">
<path d="M3.30457 11.5909L4.49047 9.11335C4.57487 8.9157 4.70869 8.76533 4.89191 8.66223C5.07513 8.55915 5.26984 8.5076 5.47603 8.5076H7.45843V4.67904C5.51505 4.62563 3.88632 4.39566 2.57222 3.98915C1.25812 3.58263 0.601074 3.08611 0.601074 2.49958C0.601074 1.84894 1.31741 1.32437 2.7501 0.925874C4.18279 0.527374 5.93278 0.328125 8.00007 0.328125C10.062 0.328125 11.8107 0.527374 13.246 0.925874C14.6814 1.32437 15.3991 1.84894 15.3991 2.49958C15.3991 3.09146 14.7372 3.58932 13.4135 3.99317C12.0898 4.397 10.4659 4.62563 8.54172 4.67904V8.5076H10.5241C10.7357 8.5076 10.9317 8.55915 11.1122 8.66223C11.2928 8.76533 11.4253 8.9157 11.5097 9.11335L12.6956 11.5909H11.5962L10.5962 9.5909H5.40391L4.40391 11.5909H3.30457Z" fill="white"/>
</svg>
