<svg width="52" height="52" viewBox="0 0 52 52" fill="none" xmlns="http://www.w3.org/2000/svg">
<path d="M0 28C0 14.7452 10.7452 4 24 4C37.2548 4 48 14.7452 48 28C48 41.2548 37.2548 52 24 52C10.7452 52 0 41.2548 0 28Z" fill="#FF5634"/>
<path d="M26 32V25.75C26 25.5375 26.0719 25.3594 26.2156 25.2156C26.3594 25.0719 26.5375 25 26.75 25H32.25C32.4625 25 32.6406 25.0719 32.7844 25.2156C32.9281 25.3594 33 25.5375 33 25.75V29.75C33 29.9625 32.9281 30.1406 32.7844 30.2844C32.6406 30.4281 32.4625 30.5 32.25 30.5H27.5L26 32ZM19.5 37C19.0875 37 18.7344 36.8531 18.4406 36.5594C18.1469 36.2656 18 35.9125 18 35.5V20.5C18 20.0875 18.1469 19.7344 18.4406 19.4406C18.7344 19.1469 19.0875 19 19.5 19H28.5C28.9125 19 29.2656 19.1469 29.5594 19.4406C29.8531 19.7344 30 20.0875 30 20.5V24H28.5V23H19.5V33H28.5V32H30V35.5C30 35.9125 29.8531 36.2656 29.5594 36.5594C29.2656 36.8531 28.9125 37 28.5 37H19.5Z" fill="white"/>
<rect x="33" y="1" width="18" height="18" rx="9" fill="#E10E0E"/>
<rect x="33" y="1" width="18" height="18" rx="9" stroke="black" stroke-width="2"/>
<path d="M41.606 14V6.915L39.929 7.396V5.966L42.347 4.9H43.413V14H41.606Z" fill="white"/>
</svg>
