<svg width="20" height="20" viewBox="0 0 20 20" fill="none" xmlns="http://www.w3.org/2000/svg">
<path d="M4.4165 15.4032V14.3199H5.25625V8.93522C5.25625 7.75895 5.62644 6.72984 6.36682 5.84789C7.10721 4.96595 8.05432 4.43256 9.20817 4.24775V3.20768C9.20817 2.98778 9.28505 2.80086 9.4388 2.64693C9.59255 2.49299 9.77924 2.41602 9.99888 2.41602C10.2185 2.41602 10.4055 2.49299 10.5599 2.64693C10.7143 2.80086 10.7915 2.98778 10.7915 3.20768V4.24775C11.9453 4.43256 12.8924 4.96595 13.6328 5.84789C14.3732 6.72984 14.7434 7.75895 14.7434 8.93522V14.3199H15.5831V15.4032H4.4165ZM9.99398 17.7429C9.62394 17.7429 9.30912 17.6117 9.0495 17.3493C8.78989 17.087 8.66009 16.7716 8.66009 16.4032H11.3395C11.3395 16.7771 11.2078 17.0939 10.9443 17.3535C10.6808 17.6131 10.364 17.7429 9.99398 17.7429Z" fill="black"/>
</svg>
